<svg xmlns="http://www.w3.org/2000/svg" viewBox="1 681 1170 1170" width="1170" height="1170">
  <rect x="1" y="681" width="1170" height="1170" fill="#000000"/>
  <g fill="#ffffff">
    <path d="M532.281372,987.355652 C542.192627,988.828979 551.646851,990.291504 561.103943,991.735535 C562.252014,991.910828 563.420898,991.947754 564.570496,992.114807 C574.022156,993.488159 583.468872,994.895447 592.922424,996.255249 C600.104919,997.288330 607.316406,998.137024 614.477295,999.299377 C626.164551,1001.196289 637.814575,1003.321533 649.493225,1005.272949 C655.994324,1006.359253 662.535645,1007.206055 669.033203,1008.311768 C675.674561,1009.441895 682.288208,1010.736938 688.906982,1011.996521 C693.921326,1012.950806 698.901367,1014.107422 703.937805,1014.918762 C714.171875,1016.567383 724.477844,1017.801514 734.671692,1019.659058 C744.695435,1021.485657 754.591797,1024.000732 764.590637,1025.977661 C774.426086,1027.922241 784.325439,1029.541626 794.186768,1031.357544 C802.432678,1032.875854 810.707825,1034.276001 818.887451,1036.099121 C824.755676,1037.407104 825.463501,1040.017578 823.064941,1045.592407 C821.536011,1049.145630 820.879456,1053.097168 820.023254,1056.912964 C817.505005,1068.136108 815.103943,1079.385498 812.610840,1090.614380 C811.734680,1094.560181 809.918457,1097.456665 805.136536,1096.415527 C799.371155,1095.160522 793.608521,1093.891968 787.851807,1092.597534 C783.690247,1091.661743 779.564331,1090.550903 775.380188,1089.735352 C766.173523,1087.940796 756.908630,1086.435425 747.726257,1084.528687 C738.400085,1082.592041 729.168701,1080.201050 719.848694,1078.231934 C714.699951,1077.144043 709.437866,1076.605225 704.257019,1075.654297 C697.790527,1074.467529 691.354370,1073.115356 684.906555,1071.827637 C680.226685,1070.893066 675.574768,1069.782837 670.864197,1069.046387 C664.514954,1068.053711 658.084778,1067.555176 651.757202,1066.454346 C645.623230,1065.387329 639.596436,1063.717896 633.482666,1062.516602 C628.315735,1061.501343 623.104553,1060.685913 617.889404,1059.948120 C611.365723,1059.025146 604.787109,1058.459351 598.289124,1057.393066 C591.633545,1056.300659 585.049988,1054.773438 578.427307,1053.474854 C576.968384,1053.188721 575.475403,1053.080566 574.002258,1052.862061 C564.722656,1051.485962 555.450012,1050.060913 546.163452,1048.733765 C538.976624,1047.706421 531.768860,1046.826904 524.577454,1045.830688 C514.963867,1044.498779 505.365448,1043.054443 495.744751,1041.777222 C487.865662,1040.731201 479.957367,1039.906616 472.073090,1038.897461 C461.780060,1037.579956 451.515045,1036.026611 441.206421,1034.851807 C430.342102,1033.613770 419.439484,1032.713379 408.555634,1031.644653 C394.424164,1030.257202 380.298279,1028.811646 366.162811,1027.466553 C359.579102,1026.839966 357.871582,1024.199341 359.496185,1016.274841 C360.645447,1010.668945 362.216370,1005.147461 363.300903,999.530762 C365.076752,990.334045 366.612823,981.091003 368.243774,971.866394 C368.787720,968.790039 369.849121,966.620117 373.538391,968.598633 C374.101501,968.900574 374.807800,969.008545 375.459625,969.061279 C385.678772,969.887390 395.924713,970.459595 406.113708,971.560486 C416.944458,972.730652 427.721619,974.396912 438.522308,975.845459 C439.017090,975.911804 439.511841,975.985657 440.009064,976.025269 C450.565521,976.865479 461.170959,977.313965 471.667084,978.632935 C485.717834,980.398499 499.677826,982.879089 513.689331,984.968384 C519.718445,985.867432 525.779053,986.555420 532.281372,987.355652 Z"/>
    <path d="M565.393066,1201.225586 C579.304871,1204.148926 592.804688,1206.973511 606.293579,1209.848755 C622.383789,1213.278320 638.483582,1216.666626 654.544189,1220.230713 C669.463379,1223.541504 684.360596,1226.958740 699.223328,1230.513672 C716.660645,1234.684448 734.060486,1239.013428 751.457214,1243.351318 C764.347534,1246.565430 777.207825,1249.900269 790.077820,1253.195679 C790.704102,1253.356201 791.294495,1253.657104 792.644836,1254.180786 C790.471497,1263.000732 788.324097,1271.799316 786.132080,1280.586548 C784.122864,1288.640869 781.971741,1296.661011 780.060913,1304.738281 C778.687378,1310.544434 777.869446,1310.903076 772.256104,1309.364502 C756.247070,1304.976685 740.180969,1300.794800 724.116943,1296.610107 C710.303955,1293.011719 696.485107,1289.431152 682.627258,1286.011597 C671.823608,1283.345703 660.966309,1280.893677 650.114014,1278.429443 C635.049255,1275.008545 619.977905,1271.614990 604.888733,1268.303589 C591.906311,1265.454590 578.905212,1262.688110 565.893433,1259.975830 C552.717346,1257.229248 539.538025,1254.489868 526.323303,1251.938110 C512.286316,1249.227539 498.230316,1246.599365 484.138458,1244.193726 C466.925873,1241.255371 449.687317,1238.454224 432.422485,1235.841675 C418.603149,1233.750366 404.737061,1231.957153 390.872925,1230.178101 C384.782349,1229.396484 384.380188,1228.932983 385.583130,1223.009399 C388.560425,1208.348145 391.591187,1193.694458 394.266235,1178.976929 C395.116699,1174.297852 396.961090,1173.083008 401.662964,1173.819702 C426.964905,1177.784058 452.382874,1181.038696 477.632202,1185.300171 C504.837708,1189.891602 531.899841,1195.331787 559.029358,1200.375732 C560.991699,1200.740601 562.992981,1200.896484 565.393066,1201.225586 Z"/>
    <path d="M338.969574,1407.578857 C340.265900,1406.305054 341.596436,1404.557495 342.735443,1404.674438 C357.799774,1406.221924 372.849731,1407.930664 387.877747,1409.803833 C402.573425,1411.635742 417.263672,1413.540771 431.913055,1415.706543 C449.679077,1418.333130 467.407593,1421.218140 485.137573,1424.082642 C500.082916,1426.497437 515.039795,1428.863892 529.931213,1431.582275 C543.829529,1434.119385 557.656494,1437.051758 571.499695,1439.884399 C583.706726,1442.382446 595.926331,1444.834595 608.080322,1447.573486 C626.552185,1451.736084 644.992188,1456.045288 663.407471,1460.452393 C676.976318,1463.699463 690.518738,1467.070190 704.009644,1470.626221 C719.093567,1474.602173 734.125305,1478.781128 749.144287,1482.997559 C763.842407,1487.123901 778.525940,1491.308105 793.160889,1495.651855 C808.745911,1500.277710 824.263367,1505.130859 839.817810,1509.860352 C842.781006,1510.761597 843.046265,1512.539307 842.093506,1515.218750 C837.760498,1527.404663 833.546631,1539.632935 829.303345,1551.850708 C828.107361,1555.294434 826.920227,1558.742188 825.797791,1562.210327 C824.921814,1564.917114 824.109375,1566.176758 820.495911,1564.997925 C797.465820,1557.484863 774.353088,1550.213501 751.169922,1543.184692 C731.319397,1537.166260 711.432617,1531.224365 691.390198,1525.893921 C668.610657,1519.835693 645.675537,1514.346802 622.742188,1508.887085 C603.831360,1504.385010 584.897339,1499.923218 565.841309,1496.103271 C543.517151,1491.627930 521.089355,1487.631592 498.634369,1483.856689 C471.565338,1479.305908 444.466248,1474.885620 417.293915,1471.013916 C396.204559,1468.009155 374.984253,1465.921143 353.819214,1463.451294 C346.875946,1462.640869 339.897003,1462.076294 333.001160,1460.979492 C331.873535,1460.800293 330.128998,1458.295532 330.303467,1457.104980 C331.846222,1446.576538 333.722534,1436.095825 335.574463,1425.614136 C336.615723,1419.720581 337.796722,1413.851562 338.969574,1407.578857 Z"/>
  </g>
</svg>
